<svg width="60" height="60" viewBox="0 0 60 60" fill="none" xmlns="http://www.w3.org/2000/svg">
<path d="M8.81926 53.4952L4.10645 0.633789H55.8939L51.1764 53.4872L29.9688 59.3668L8.81926 53.4952V53.4952Z" fill="#1572B6"/>
<path d="M30 54.8732L47.137 50.122L51.1688 4.95605H30V54.8732Z" fill="#33A9DC"/>
<path d="M30 24.1075H38.5791L39.1716 17.4686H30V10.9854H46.2572L46.1016 12.7249L44.5078 30.5908H30V24.1075Z" fill="white"/>
<path d="M30.0389 40.9449L30.0104 40.9533L22.7902 39.0038L22.3285 33.833H15.8213L16.7293 44.0128L30.0094 47.6986L30.0389 47.6902V40.9449V40.9449Z" fill="#EBEBEB"/>
<path d="M38.0285 30.3164L37.2475 38.9986L30.0166 40.9505V47.6958L43.3075 44.0123L43.405 42.9169L44.5328 30.3164H38.0285Z" fill="white"/>
<path d="M30.0225 10.9854V17.4686H14.3625L14.2327 16.0118L13.9374 12.7249L13.7822 10.9854H30.0225V10.9854ZM30.0005 24.1085V30.5918H22.8713L22.7414 29.1349L22.4457 25.848L22.291 24.1085H30.0005V24.1085Z" fill="#EBEBEB"/>
</svg>
