<svg width="60" height="60" viewBox="0 0 60 60" fill="none" xmlns="http://www.w3.org/2000/svg">
<path d="M9.39199 53.3791L4.70215 0.77832H56.2346L51.5396 53.3711L30.437 59.2211L9.39199 53.3791Z" fill="#E44D26"/>
<path d="M30.4688 54.7497L47.5209 50.0219L51.533 5.0791H30.4688V54.7497Z" fill="#F16529"/>
<path d="M30.469 24.5888H21.9321L21.3425 17.9822H30.469V11.5312H14.292L14.4467 13.2619L16.032 31.0402H30.469V24.5888ZM30.469 41.3433L30.4404 41.3512L23.2559 39.4106L22.797 34.2661H16.3203L17.224 44.3953L30.4395 48.0638L30.469 48.0558V41.3433Z" fill="#EBEBEB"/>
<path d="M30.4463 24.5887V31.0402H38.3902L37.6416 39.4069L30.4463 41.3489V48.0609L43.6721 44.3953L43.7691 43.3055L45.285 26.3212L45.4421 24.5887H43.7039H30.4463ZM30.4463 11.5312V17.9822H46.0294L46.1588 16.5328L46.4532 13.2619L46.6074 11.5312H30.4463Z" fill="white"/>
</svg>
