<svg width="76" height="84" viewBox="0 0 76 84" fill="none" xmlns="http://www.w3.org/2000/svg">
<path d="M3.02364 81.14C2.39831 81.14 1.81964 81.0187 1.28764 80.776C0.764974 80.5333 0.335641 80.1833 -0.000359379 79.726L1.03564 78.48C1.30631 78.8533 1.60031 79.1333 1.91764 79.32C2.24431 79.5067 2.59897 79.6 2.98164 79.6C3.99897 79.6 4.50764 78.998 4.50764 77.794V72.726H1.02164V71.2H6.32764V77.696C6.32764 78.8533 6.04297 79.7167 5.47364 80.286C4.91364 80.8553 4.09697 81.14 3.02364 81.14ZM13.3185 81V79.488L13.2205 79.166V76.52C13.2205 76.0067 13.0665 75.61 12.7585 75.33C12.4505 75.0407 11.9838 74.896 11.3585 74.896C10.9385 74.896 10.5231 74.9613 10.1125 75.092C9.71112 75.2227 9.37045 75.4047 9.09045 75.638L8.40445 74.364C8.80579 74.056 9.28179 73.8273 9.83245 73.678C10.3925 73.5193 10.9711 73.44 11.5685 73.44C12.6511 73.44 13.4865 73.7013 14.0745 74.224C14.6718 74.7373 14.9705 75.5353 14.9705 76.618V81H13.3185ZM10.9665 81.098C10.4065 81.098 9.91645 81.0047 9.49645 80.818C9.07645 80.622 8.74979 80.356 8.51645 80.02C8.29245 79.6747 8.18045 79.2873 8.18045 78.858C8.18045 78.438 8.27845 78.06 8.47445 77.724C8.67979 77.388 9.01112 77.122 9.46845 76.926C9.92579 76.73 10.5325 76.632 11.2885 76.632H13.4585V77.794H11.4145C10.8171 77.794 10.4158 77.892 10.2105 78.088C10.0051 78.2747 9.90245 78.508 9.90245 78.788C9.90245 79.1053 10.0285 79.3573 10.2805 79.544C10.5325 79.7307 10.8825 79.824 11.3305 79.824C11.7598 79.824 12.1425 79.726 12.4785 79.53C12.8238 79.334 13.0711 79.0447 13.2205 78.662L13.5145 79.712C13.3465 80.1507 13.0431 80.4913 12.6045 80.734C12.1751 80.9767 11.6291 81.098 10.9665 81.098ZM19.0676 81L15.8616 73.524H17.6816L20.4396 80.118H19.5436L22.3996 73.524H24.0796L20.8736 81H19.0676ZM29.547 81V79.488L29.449 79.166V76.52C29.449 76.0067 29.295 75.61 28.987 75.33C28.679 75.0407 28.2123 74.896 27.587 74.896C27.167 74.896 26.7516 74.9613 26.341 75.092C25.9396 75.2227 25.599 75.4047 25.319 75.638L24.633 74.364C25.0343 74.056 25.5103 73.8273 26.061 73.678C26.621 73.5193 27.1996 73.44 27.797 73.44C28.8796 73.44 29.715 73.7013 30.303 74.224C30.9003 74.7373 31.199 75.5353 31.199 76.618V81H29.547ZM27.195 81.098C26.635 81.098 26.145 81.0047 25.725 80.818C25.305 80.622 24.9783 80.356 24.745 80.02C24.521 79.6747 24.409 79.2873 24.409 78.858C24.409 78.438 24.507 78.06 24.703 77.724C24.9083 77.388 25.2396 77.122 25.697 76.926C26.1543 76.73 26.761 76.632 27.517 76.632H29.687V77.794H27.643C27.0456 77.794 26.6443 77.892 26.439 78.088C26.2336 78.2747 26.131 78.508 26.131 78.788C26.131 79.1053 26.257 79.3573 26.509 79.544C26.761 79.7307 27.111 79.824 27.559 79.824C27.9883 79.824 28.371 79.726 28.707 79.53C29.0523 79.334 29.2996 79.0447 29.449 78.662L29.743 79.712C29.575 80.1507 29.2716 80.4913 28.833 80.734C28.4036 80.9767 27.8576 81.098 27.195 81.098ZM36.6509 81.14C35.8855 81.14 35.1529 81.0327 34.4529 80.818C33.7529 80.594 33.1975 80.3093 32.7869 79.964L33.4169 78.55C33.8089 78.858 34.2942 79.1147 34.8729 79.32C35.4515 79.5253 36.0442 79.628 36.6509 79.628C37.1642 79.628 37.5795 79.572 37.8969 79.46C38.2142 79.348 38.4475 79.1987 38.5969 79.012C38.7462 78.816 38.8209 78.5967 38.8209 78.354C38.8209 78.0553 38.7135 77.8173 38.4989 77.64C38.2842 77.4533 38.0042 77.3087 37.6589 77.206C37.3229 77.094 36.9449 76.9913 36.5249 76.898C36.1142 76.8047 35.6989 76.6973 35.2789 76.576C34.8682 76.4453 34.4902 76.282 34.1449 76.086C33.8089 75.8807 33.5335 75.61 33.3189 75.274C33.1042 74.938 32.9969 74.5087 32.9969 73.986C32.9969 73.454 33.1369 72.9687 33.4169 72.53C33.7062 72.082 34.1402 71.7273 34.7189 71.466C35.3069 71.1953 36.0489 71.06 36.9449 71.06C37.5329 71.06 38.1162 71.1347 38.6949 71.284C39.2735 71.4333 39.7775 71.648 40.2069 71.928L39.6329 73.342C39.1942 73.0807 38.7415 72.8893 38.2749 72.768C37.8082 72.6373 37.3602 72.572 36.9309 72.572C36.4269 72.572 36.0162 72.6327 35.6989 72.754C35.3909 72.8753 35.1622 73.034 35.0129 73.23C34.8729 73.426 34.8029 73.65 34.8029 73.902C34.8029 74.2007 34.9055 74.4433 35.1109 74.63C35.3255 74.8073 35.6009 74.9473 35.9369 75.05C36.2822 75.1527 36.6649 75.2553 37.0849 75.358C37.5049 75.4513 37.9202 75.5587 38.3309 75.68C38.7509 75.8013 39.1289 75.96 39.4649 76.156C39.8102 76.352 40.0855 76.618 40.2909 76.954C40.5055 77.29 40.6129 77.7147 40.6129 78.228C40.6129 78.7507 40.4682 79.236 40.1789 79.684C39.8989 80.1227 39.4649 80.4773 38.8769 80.748C38.2889 81.0093 37.5469 81.14 36.6509 81.14ZM45.6796 81.098C44.8956 81.098 44.1956 80.9347 43.5796 80.608C42.9729 80.272 42.4969 79.8147 42.1516 79.236C41.8062 78.6573 41.6336 77.9993 41.6336 77.262C41.6336 76.5153 41.8062 75.8573 42.1516 75.288C42.4969 74.7093 42.9729 74.2567 43.5796 73.93C44.1956 73.6033 44.8956 73.44 45.6796 73.44C46.4076 73.44 47.0469 73.5893 47.5976 73.888C48.1576 74.1773 48.5822 74.6067 48.8716 75.176L47.5276 75.96C47.3036 75.6053 47.0282 75.344 46.7016 75.176C46.3842 75.008 46.0389 74.924 45.6656 74.924C45.2362 74.924 44.8489 75.0173 44.5036 75.204C44.1582 75.3907 43.8876 75.6613 43.6916 76.016C43.4956 76.3613 43.3976 76.7767 43.3976 77.262C43.3976 77.7473 43.4956 78.1673 43.6916 78.522C43.8876 78.8673 44.1582 79.1333 44.5036 79.32C44.8489 79.5067 45.2362 79.6 45.6656 79.6C46.0389 79.6 46.3842 79.516 46.7016 79.348C47.0282 79.18 47.3036 78.9187 47.5276 78.564L48.8716 79.348C48.5822 79.908 48.1576 80.342 47.5976 80.65C47.0469 80.9487 46.4076 81.098 45.6796 81.098ZM50.3843 81V73.524H52.0503V75.582L51.8543 74.98C52.0783 74.476 52.4283 74.0933 52.9043 73.832C53.3897 73.5707 53.9917 73.44 54.7103 73.44V75.106C54.6357 75.0873 54.5657 75.078 54.5003 75.078C54.435 75.0687 54.3697 75.064 54.3043 75.064C53.6417 75.064 53.1143 75.26 52.7223 75.652C52.3303 76.0347 52.1343 76.6087 52.1343 77.374V81H50.3843ZM56.1949 81V73.524H57.9449V81H56.1949ZM57.0769 72.292C56.7502 72.292 56.4795 72.1893 56.2649 71.984C56.0595 71.7787 55.9569 71.5313 55.9569 71.242C55.9569 70.9433 56.0595 70.696 56.2649 70.5C56.4795 70.2947 56.7502 70.192 57.0769 70.192C57.4035 70.192 57.6695 70.29 57.8749 70.486C58.0895 70.6727 58.1969 70.9107 58.1969 71.2C58.1969 71.508 58.0942 71.7693 57.8889 71.984C57.6835 72.1893 57.4129 72.292 57.0769 72.292ZM64.3858 81.098C63.7791 81.098 63.2238 80.958 62.7198 80.678C62.2251 80.398 61.8284 79.978 61.5298 79.418C61.2404 78.8487 61.0958 78.13 61.0958 77.262C61.0958 76.3847 61.2358 75.666 61.5158 75.106C61.8051 74.546 62.1971 74.1307 62.6917 73.86C63.1864 73.58 63.7511 73.44 64.3858 73.44C65.1231 73.44 65.7718 73.5987 66.3318 73.916C66.9011 74.2333 67.3491 74.6767 67.6758 75.246C68.0118 75.8153 68.1798 76.4873 68.1798 77.262C68.1798 78.0367 68.0118 78.7133 67.6758 79.292C67.3491 79.8613 66.9011 80.3047 66.3318 80.622C65.7718 80.9393 65.1231 81.098 64.3858 81.098ZM60.2418 83.716V73.524H61.9078V75.288L61.8518 77.276L61.9918 79.264V83.716H60.2418ZM64.1898 79.6C64.6098 79.6 64.9831 79.5067 65.3098 79.32C65.6458 79.1333 65.9118 78.8627 66.1078 78.508C66.3038 78.1533 66.4018 77.738 66.4018 77.262C66.4018 76.7767 66.3038 76.3613 66.1078 76.016C65.9118 75.6613 65.6458 75.3907 65.3098 75.204C64.9831 75.0173 64.6098 74.924 64.1898 74.924C63.7698 74.924 63.3918 75.0173 63.0558 75.204C62.7198 75.3907 62.4538 75.6613 62.2578 76.016C62.0618 76.3613 61.9638 76.7767 61.9638 77.262C61.9638 77.738 62.0618 78.1533 62.2578 78.508C62.4538 78.8627 62.7198 79.1333 63.0558 79.32C63.3918 79.5067 63.7698 79.6 64.1898 79.6ZM72.6534 81.098C71.8321 81.098 71.1974 80.888 70.7494 80.468C70.3014 80.0387 70.0774 79.4087 70.0774 78.578V71.872H71.8274V78.536C71.8274 78.8907 71.9161 79.166 72.0934 79.362C72.2801 79.558 72.5367 79.656 72.8634 79.656C73.2554 79.656 73.5821 79.5533 73.8434 79.348L74.3334 80.594C74.1281 80.762 73.8761 80.888 73.5774 80.972C73.2787 81.056 72.9707 81.098 72.6534 81.098ZM68.8454 74.98V73.58H73.8294V74.98H68.8454Z" fill="white"/>
<path d="M7.8418 20.6602C7.8418 9.61448 16.7961 0.660156 27.8418 0.660156H46.5218C57.5675 0.660156 66.5218 9.61446 66.5218 20.6602V39.3406C66.5218 50.3863 57.5675 59.3406 46.5218 59.3406H27.8418C16.7961 59.3406 7.8418 50.3863 7.8418 39.3406V20.6602Z" fill="#F0DB4F"/>
<path d="M61.7195 45.3448C61.2896 42.6678 59.544 40.4192 54.3732 38.3224C52.577 37.497 50.5745 36.9059 49.9778 35.5446C49.7659 34.7524 49.7378 34.3062 49.8718 33.8267C50.2567 32.2704 52.1143 31.7853 53.5867 32.2315C54.535 32.5493 55.4326 33.2801 55.974 34.4459C58.5062 32.8062 58.5011 32.817 60.2692 31.6901C59.6218 30.6865 59.2764 30.2234 58.8526 29.794C57.3297 28.0929 55.2545 27.2168 51.9357 27.2839L50.207 27.5074C48.5504 27.926 46.9717 28.7956 46.0459 29.9614C43.2681 33.1132 44.0603 38.6295 47.4404 40.8996C50.7704 43.399 55.6623 43.9676 56.2871 46.3048C56.8951 49.166 54.1843 50.0923 51.49 49.7632C49.5043 49.3503 48.4 48.341 47.2061 46.5059C45.0086 47.7776 45.0086 47.7776 42.7492 49.077C43.285 50.2484 43.8479 50.7785 44.7461 51.7934C48.9967 56.1049 59.6336 55.8931 61.5414 49.3671C61.6187 49.1431 62.1325 47.6487 61.7195 45.3448ZM39.7421 27.6293H34.2536L34.2311 41.8193C34.2311 44.8371 34.3871 47.6037 33.8964 48.4517C33.0934 50.1195 31.0126 49.9128 30.0643 49.5893C29.0992 49.1149 28.6084 48.4404 28.0398 47.487C27.8837 47.2132 27.7665 47.0014 27.7271 46.9849L23.2646 49.7178C24.0067 51.2407 25.0998 52.5626 26.5 53.4214C28.5915 54.6767 31.4026 55.0615 34.3426 54.3865C36.2561 53.8292 37.907 52.6746 38.7714 50.9173C40.0211 48.6134 39.7529 45.8248 39.7417 42.7404C39.7698 37.7084 39.7421 32.6773 39.7421 27.6293Z" fill="#323330"/>
</svg>
