<svg width="62" height="62" viewBox="0 0 62 62" fill="none" xmlns="http://www.w3.org/2000/svg">
<path fill-rule="evenodd" clip-rule="evenodd" d="M8.20241 0.833008C7.65652 0.875633 7.12031 0.868852 6.59186 1.01368C5.43566 1.33095 4.4083 1.83809 3.50203 2.61987C2.96922 3.07905 2.50422 3.57409 2.10945 4.15727C1.50011 5.05773 1.085 6.02551 0.876719 7.11487C0.960031 7.26066 1.0477 7.41373 1.1407 7.56921C1.73116 8.55637 2.32209 9.53674 2.914 10.5229L4.46981 13.11C4.94837 13.9073 5.42597 14.705 5.90356 15.5023L8.13556 19.2262L9.65795 21.7662C10.3976 22.999 11.1392 24.2307 11.8778 25.464L14.5947 30.003C15.3779 31.3104 16.1626 32.6167 16.9473 33.9231L17.0519 34.0752C17.1658 34.1115 17.2563 34.0805 17.3503 34.0582C18.384 33.8102 19.4176 33.5637 20.4513 33.3166C22.1277 32.9161 23.8041 32.5169 25.4805 32.1159L28.1063 31.4876C29.8012 31.0827 31.4965 30.6787 33.1913 30.2728C34.9045 29.8631 36.6173 29.4513 38.331 29.0411C39.1971 28.8333 40.0631 28.6264 40.9297 28.4196C42.6061 28.0195 44.2825 27.6204 45.959 27.2213L51.4363 25.9169L51.7322 25.8369L51.6513 25.6766L50.1565 23.5638L48.6802 21.4737L47.1011 19.2436L45.5918 17.1061L44.096 14.9937L42.5519 12.8106C42.0476 12.0986 41.5424 11.3875 41.0377 10.676L40.2399 9.54934C40.1171 9.37778 40.0212 9.18847 39.9556 8.98795C39.7977 8.49824 39.9779 8.17226 40.2637 7.93152C40.4487 7.77507 40.6618 7.66027 40.8924 7.59246C41.2126 7.49406 41.5376 7.41161 41.866 7.34543C42.5243 7.22095 43.1869 7.11535 43.8476 7.0054L46.0873 6.64018C46.5596 6.5622 47.0314 6.48034 47.5036 6.40041C48.1454 6.29191 48.7872 6.18293 49.4295 6.07588C50.0529 5.97126 50.6763 5.8676 51.2997 5.76491L53.3403 5.43118L54.7567 5.19335C55.2953 5.10326 55.8334 5.01365 56.3716 4.92549C57.0429 4.81602 57.7138 4.70559 58.3851 4.60048C58.7852 4.53799 59.1853 4.5162 59.5825 4.63051C59.8771 4.71776 60.1548 4.85418 60.404 5.03399L60.7532 5.27763C60.7881 5.19723 60.7377 5.15363 60.7145 5.10762C60.2188 4.09697 59.5157 3.20211 58.651 2.48134C57.8487 1.80724 56.9209 1.29856 55.9211 0.984617C55.3258 0.796195 54.714 0.883867 54.0911 0.836883M26.9744 61.516C26.9443 61.516 26.9177 61.298 26.8838 61.2404C26.1572 60.0004 25.4229 58.6693 24.7051 57.425C23.8012 55.8561 22.904 54.2835 22.0134 52.7071C21.0616 51.0225 20.118 49.333 19.1735 47.6445C18.276 46.0392 17.38 44.433 16.4857 42.8259C15.9456 41.8547 15.4089 40.8816 14.8693 39.91L14.726 39.6876L14.4634 39.7395C13.9442 39.8736 13.4259 40.0088 12.9076 40.1454C12.1859 40.3352 11.4647 40.5285 10.7425 40.7169C9.12127 41.1388 7.50006 41.5583 5.87886 41.9787C4.23005 42.4069 2.51197 42.8361 0.862672 43.2623C0.762406 43.288 0.96875 43.2967 0.484375 43.3137V53.5558C0.683938 53.8735 0.665047 53.7239 0.677641 53.8285C0.715906 54.1317 0.777906 54.4373 0.831187 54.7376C1.03075 55.8566 1.47977 56.881 2.12883 57.8139C3.08063 59.1828 4.34823 60.1612 5.90114 60.7599C6.45575 60.973 7.03458 61.1232 7.62648 61.1958L8.22759 61.3547" fill="#FD4F31"/>
<path fill-rule="evenodd" clip-rule="evenodd" d="M2.41025 37.6564C4.3182 37.2026 6.22664 36.7492 8.13459 36.2963C8.97256 36.0977 9.81102 35.9016 10.649 35.702C11.068 35.6022 11.4879 35.5073 11.9035 35.3949C12.2736 35.2951 12.3191 35.1726 12.1288 34.8388C11.8536 34.3564 11.5737 33.8769 11.2951 33.3959L8.84227 29.1721L6.39036 24.9479C5.55869 23.5151 4.72605 22.0823 3.89389 20.65L1.75683 16.9736C1.44877 16.4437 1.07483 15.9124 0.765313 15.3829C0.707672 15.2866 0.96875 15.1713 0.484375 15.1199V38.0774C0.484375 38.0619 0.703797 38.0488 0.777906 38.0309L2.41025 37.6564ZM61.1397 54.0661C60.3919 54.332 59.6435 54.5999 58.8961 54.8677L53.7884 56.6992C52.8424 57.0387 51.8984 57.3821 50.9519 57.7202C49.0231 58.4085 47.0934 59.0944 45.1641 59.7812C44.0462 60.1794 42.9277 60.6715 41.8103 61.0716C41.5042 61.1816 41.2024 61.5158 40.8992 61.5158H53.7303L54.0064 61.3574C54.3328 61.3434 54.654 61.2465 54.9746 61.1879C56.2916 60.9471 57.4711 60.3775 58.5159 59.5449C59.3185 58.905 59.9714 58.1227 60.4829 57.2305C61.009 56.3122 61.3214 55.3187 61.4715 54.2754C61.4846 54.1853 61.5127 54.0831 61.4372 53.9901C61.3306 53.9818 61.2366 54.0317 61.1397 54.0661ZM60.0378 36.8364C59.472 36.0624 58.9048 35.2898 58.3401 34.5153C57.5607 33.4463 56.7828 32.3763 56.0044 31.3068C55.6881 30.8728 55.3675 30.4422 55.0589 30.0033C54.9659 29.8711 54.8598 29.8357 54.715 29.875L54.6322 29.8987C53.1994 30.247 51.7661 30.5943 50.3329 30.9416L47.7647 31.5649L42.7408 32.7851C41.0847 33.1876 39.4286 33.5906 37.772 33.9922L32.6076 35.2428C30.9138 35.654 29.2209 36.0667 27.5275 36.4784L22.615 37.671C21.7494 37.8812 20.8838 38.0904 20.0192 38.3016C19.8918 38.3326 19.7548 38.3404 19.6191 38.4431L19.7349 38.6635C21.2803 41.3347 22.83 44.0034 24.3839 46.6697C25.2916 48.226 26.2018 49.7813 27.111 51.3371C27.6336 52.2308 28.1528 53.1254 28.6798 54.0167C29.2643 55.0072 29.8541 55.9945 30.4493 56.9787C30.628 57.2727 30.831 57.5536 31.0354 57.8307C31.1722 58.0169 31.3444 58.1744 31.542 58.2942C31.7484 58.4187 31.9707 58.4579 32.2051 58.4051C32.3262 58.3775 32.4449 58.3378 32.5621 58.2971L32.9932 58.1373C34.5611 57.6011 36.1286 57.0649 37.697 56.5306C38.9205 56.114 40.1455 55.6994 41.37 55.2853C42.5853 54.8731 43.8015 54.4628 45.0173 54.0525L48.6375 52.83C49.8717 52.4129 51.1054 51.9959 52.3391 51.5779C53.8533 51.0639 55.367 50.5481 56.8821 50.0351C58.3425 49.5411 59.8043 49.0499 61.2652 48.5568C61.3548 48.5268 61.4536 48.5142 61.5277 48.4159L61.5369 48.2032C61.5374 45.1735 61.5365 42.1432 61.5398 39.1134C61.5429 38.9606 61.4935 38.8114 61.3999 38.6906C60.9407 38.0759 60.4907 37.4549 60.0378 36.8364ZM59.7864 8.28831C59.4464 7.8577 59.0133 7.7211 58.4825 7.85963C58.2514 7.92018 58.0141 7.95845 57.7787 8.00156C57.0066 8.14299 56.2335 8.28201 55.4614 8.42199C54.3309 8.62737 53.2008 8.83468 52.0703 9.03812C51.1752 9.19893 50.2796 9.35732 49.384 9.51426L45.7909 10.143C45.6402 10.1691 45.4881 10.1953 45.3428 10.2418C45.1312 10.3096 45.0701 10.4423 45.167 10.6414C45.246 10.8042 45.3443 10.9596 45.4508 11.1059C46.1939 12.1299 46.9403 13.1514 47.6867 14.1735C48.7155 15.5825 49.7448 16.9911 50.7741 18.3992C51.645 19.5907 52.5169 20.7823 53.3883 21.9734C54.0732 22.9092 54.7581 23.845 55.444 24.7803L55.5791 24.944L61.5229 23.4749L61.5369 23.1669C61.5374 19.0443 61.5365 14.9218 61.5398 10.7988C61.5398 10.6167 61.4958 10.4704 61.381 10.3261C60.8811 9.69493 60.3904 9.05653 59.8959 8.42103L59.7864 8.28831ZM61.3853 28.2644C60.4863 28.4804 59.5839 28.6858 58.6631 28.9295C58.7605 29.1024 61.286 32.5114 61.4328 32.6732L61.5248 32.7241L61.535 32.5163L61.5355 31.0811C61.536 30.2484 61.5379 29.4158 61.536 28.5831C61.536 28.4819 61.5645 28.3729 61.4948 28.2702L61.3853 28.2644Z" fill="#FD4F31"/>
</svg>
