<svg width="74" height="73" viewBox="0 0 74 73" fill="none" xmlns="http://www.w3.org/2000/svg">
<path d="M43.0586 0.170898C42.5453 0.170898 42.032 0.284961 41.5758 0.456055C42.5453 1.0834 43.0586 1.93887 43.3438 2.9084C43.3438 3.02246 43.4008 3.13652 43.4008 3.25059C43.4008 3.36465 43.4578 3.47871 43.4578 3.59277C43.5148 5.24668 43.0016 5.4748 42.6594 6.44434C42.0891 7.69902 42.2602 9.06777 42.9445 10.1514C43.0016 10.2654 43.0586 10.4365 43.1727 10.5506C42.4312 5.75996 46.4234 5.07559 47.1648 3.59277C47.2219 2.28105 46.1383 1.42559 45.2828 0.798242C44.4273 0.284961 43.743 0.170898 43.0586 0.170898ZM49.0469 1.19746C48.9898 1.65371 49.0469 1.53965 48.9898 1.76777C48.9898 1.93887 48.9898 2.10996 48.9328 2.28105C48.8758 2.45215 48.8758 2.56621 48.8187 2.7373C48.7617 2.9084 48.7047 3.02246 48.6477 3.19355C48.5906 3.30762 48.5336 3.42168 48.4766 3.59277C48.4195 3.6498 48.3625 3.76387 48.3055 3.8209C48.2484 3.87793 48.2484 3.93496 48.1914 3.99199C48.0773 4.10605 48.0203 4.27715 47.9062 4.39121L47.5641 4.7334C47.45 4.84746 47.3359 4.96152 47.2219 5.01855C46.8227 5.30371 46.3664 5.53184 45.9672 5.81699C45.8531 5.93105 45.682 5.98809 45.568 6.10215C45.4539 6.21621 45.3398 6.27324 45.2258 6.3873L44.8836 6.72949C44.7695 6.84355 44.6555 6.95762 44.5984 7.12871C44.4844 7.24277 44.4273 7.41387 44.3133 7.52793C44.2562 7.69902 44.1992 7.81309 44.0852 7.98418C44.0281 8.15527 43.9711 8.26934 43.9141 8.44043C43.857 8.61152 43.8 8.78262 43.8 8.89668C43.8 8.95371 43.8 9.06777 43.743 9.1248C43.743 9.18184 43.743 9.2959 43.6859 9.35293V10.1514C43.6859 10.3225 43.6859 10.4365 43.743 10.6076C43.743 10.7787 43.8 10.8928 43.857 11.0639C43.9141 11.235 43.9711 11.349 44.0281 11.5201C44.0852 11.6342 44.1422 11.6912 44.1422 11.8053L39.8078 10.1514C39.0664 9.92324 38.382 9.75215 37.6406 9.58105C37.2414 9.46699 36.8422 9.40996 36.443 9.2959C35.3023 9.06777 34.1617 8.89668 33.0211 8.78262H32.907C31.7664 8.66855 30.6828 8.61152 29.5422 8.61152C28.6867 8.61152 27.8883 8.66855 27.0898 8.72559C25.9492 8.78262 24.8086 8.95371 23.668 9.1248L22.8125 9.2959C22.2422 9.40996 21.6719 9.52402 21.1016 9.69512C20.8164 9.75215 20.5312 9.86621 20.2461 9.92324C19.9609 10.0373 19.6758 10.1514 19.4477 10.2654C19.2195 10.3795 19.0484 10.4365 18.8203 10.5506C18.7633 10.5506 18.7633 10.5506 18.7062 10.6076C18.5352 10.7217 18.3641 10.7787 18.193 10.8928C18.1359 10.8928 18.0789 10.9498 18.0789 10.9498C17.8508 11.0639 17.6797 11.1779 17.5086 11.235C17.3945 11.292 17.2234 11.349 17.1094 11.4061C17.0523 11.4631 16.9953 11.4631 16.9383 11.5201C16.7672 11.6342 16.5961 11.6912 16.425 11.8053C16.2539 11.9193 16.0828 11.9764 15.9688 12.0904C15.8547 12.2045 15.6836 12.2615 15.5695 12.3756C15.5695 12.3756 15.5125 12.3756 15.5125 12.4326C15.3984 12.4896 15.2844 12.6037 15.1703 12.7178L15.1133 12.7748C14.9992 12.8318 14.9422 12.9459 14.8281 13.0029C14.7711 13.0029 14.7711 13.06 14.7141 13.06C14.6 13.117 14.543 13.2311 14.4289 13.2881C14.4289 13.3451 14.3719 13.3451 14.3719 13.3451L14.0297 13.6873L13.9727 13.7443L13.6305 14.0865C13.6305 14.0865 13.6305 14.1436 13.5734 14.1436L13.2883 14.4287C13.2313 14.4857 13.1742 14.4857 13.1742 14.5428L12.832 14.885C12.832 14.942 12.775 14.942 12.775 14.999L12.3188 15.4553L12.2617 15.5123C11.9766 15.8545 11.6344 16.1396 11.2922 16.4248C10.95 16.71 10.6078 16.9951 10.2086 17.2803C9.80937 17.5654 9.46719 17.7936 9.06797 18.0217C8.66875 18.2498 8.26953 18.4209 7.87031 18.592C7.47109 18.7631 7.07188 18.9342 6.67266 19.0482C5.87422 19.2193 5.07578 19.5615 4.39141 19.6186C4.39141 19.3334 4.22031 19.3904 4.04922 19.3904C3.87812 19.4475 3.70703 19.4475 3.59297 19.5045C3.42187 19.5615 3.30781 19.6186 3.13672 19.6756C2.96563 19.7326 2.85156 19.7896 2.68047 19.9037C2.56641 20.0178 2.39531 20.0748 2.28125 20.1889C2.16719 20.3029 1.99609 20.417 1.88203 20.5311C1.76797 20.6451 1.59687 20.7592 1.48281 20.8732C1.36875 20.9873 1.25469 21.1014 1.14062 21.2725C1.02656 21.4436 0.9125 21.5576 0.855469 21.7287C0.741406 21.8428 0.684375 22.0139 0.570312 22.185C0.513281 22.3561 0.399219 22.5271 0.342188 22.6982L0.171094 23.2115C0.114063 23.3826 0.114063 23.4967 0.0570313 23.6678V23.7248C0 23.8959 0 24.124 0 24.2381C0.0570313 24.1811 0.0570313 24.2951 0.0570313 24.4092V24.6373C0.0570313 24.7514 0.114063 24.8654 0.114063 24.9795C0.171094 25.0936 0.171094 25.2076 0.228125 25.3217C0.285156 25.4357 0.342187 25.5498 0.45625 25.6639C0.513281 25.7779 0.627344 25.892 0.684375 26.0061C0.798438 26.1201 0.9125 26.2342 1.02656 26.2912C1.14062 26.4053 1.25469 26.5193 1.36875 26.5764C1.825 26.9756 1.93906 27.0896 2.50938 27.4318C2.62344 27.4889 2.68047 27.5459 2.79453 27.6029H2.85156V27.717C2.85156 27.8881 2.90859 28.0021 2.96562 28.1732C3.02266 28.3443 3.07969 28.5154 3.13672 28.6295L3.30781 28.9717C3.30781 29.0287 3.36484 29.0287 3.36484 29.0857C3.42188 29.2568 3.53594 29.3709 3.59297 29.485C3.70703 29.599 3.76406 29.7701 3.87812 29.8842L4.22031 30.2264L4.5625 30.5686H4.61953C4.73359 30.6826 4.84766 30.7396 4.96172 30.8537C5.07578 30.9678 5.24688 31.0248 5.36094 31.0818C5.475 31.1389 5.64609 31.2529 5.81719 31.31C5.93125 31.367 6.04531 31.424 6.21641 31.424C6.21641 31.424 6.27344 31.424 6.27344 31.4811C6.33047 31.4811 6.44453 31.5381 6.50156 31.5381C6.44453 32.5646 6.44453 33.5342 6.55859 33.8764C6.72969 34.2756 7.58516 33.0779 8.38359 31.7662C8.26953 33.0779 8.2125 34.6178 8.38359 35.074C8.61172 35.5303 9.69531 34.0475 10.7219 32.4506C24.0672 29.3709 36.2719 38.61 37.5836 51.6701C37.3555 49.617 34.8461 48.4764 33.6484 48.7615C33.0781 50.1303 32.1086 51.9553 30.5687 53.0389C30.6828 51.7842 30.6258 50.5295 30.3977 49.2748C29.9984 50.9857 29.2 52.6396 28.0594 54.0084C26.2914 54.1225 24.4664 53.267 23.5539 51.9553C23.4969 51.8982 23.4398 51.7842 23.3828 51.7271C23.3258 51.6131 23.2687 51.442 23.2117 51.3279C23.1547 51.2139 23.0977 51.0428 23.0977 50.9287V50.5295V50.2443C23.0977 50.1303 23.1547 49.9592 23.2117 49.8451C23.2687 49.7311 23.2687 49.56 23.3258 49.4459C23.3828 49.3318 23.4398 49.1607 23.5539 49.0467C23.8961 48.1342 23.8961 47.3928 23.2687 46.9936L22.9266 46.8225C22.8695 46.8225 22.7555 46.7654 22.6984 46.7654C22.6414 46.7654 22.5844 46.7084 22.5273 46.7084C22.4133 46.6514 22.2422 46.6514 22.1281 46.5943C22.0141 46.5373 21.843 46.5373 21.7289 46.5373C21.6148 46.5373 21.4437 46.4803 21.3297 46.4803H21.0445C20.8734 46.4803 20.7594 46.4803 20.6453 46.5373C20.5312 46.5373 20.3602 46.5943 20.2461 46.5943C20.132 46.6514 19.9609 46.6514 19.8469 46.7084C19.7328 46.7654 19.6187 46.8225 19.4477 46.8795L19.1055 47.0506C14.7141 49.9021 17.3375 56.6318 20.3031 58.5709C19.1625 58.799 18.0219 59.0271 17.6797 59.2553L17.6227 59.3123C18.4211 59.8256 19.2766 60.2248 20.1891 60.567C21.3867 60.9662 22.6984 61.3084 23.2687 61.4795C24.8086 61.8217 26.4055 61.9357 28.0023 61.8217C36.3289 61.2514 43.1727 54.8639 44.4273 46.5373C44.4844 46.7084 44.4844 46.8795 44.5414 47.0506C44.5984 47.3928 44.6555 47.735 44.7125 48.1342C44.7695 48.3053 44.7695 48.4764 44.7695 48.6475V48.7045C44.7695 48.8756 44.8266 49.0467 44.8266 49.2178C44.8266 49.4459 44.8836 49.617 44.8836 49.8451V52.2404C44.8836 52.4115 44.8266 52.5256 44.8266 52.6967V52.8678C44.8266 53.0389 44.7695 53.21 44.7695 53.4381C44.7125 53.6092 44.7125 53.7803 44.6555 53.9514V54.0084C44.5984 54.1795 44.5984 54.3506 44.5414 54.5217V54.5787C44.4844 54.7498 44.4844 54.9209 44.4273 55.092V55.149L44.2562 55.6623V55.7193C44.1992 55.8904 44.1422 56.1185 44.0852 56.2896C44.0281 56.4607 43.9711 56.6318 43.857 56.86C43.8 57.0311 43.743 57.2592 43.6289 57.4303C43.5719 57.6014 43.4578 57.7725 43.4008 58.0006C43.3438 58.1717 43.2297 58.3428 43.1727 58.5139C43.1727 58.5709 43.1156 58.6279 43.1156 58.6279C43.1156 58.6279 43.1156 58.685 43.0586 58.685C41.8609 61.1373 40.0359 63.3045 37.7547 65.0154C37.5836 65.1295 37.4695 65.2436 37.2984 65.3576C37.2414 65.4146 37.1844 65.4146 37.1844 65.4717C37.0703 65.5857 36.8992 65.6428 36.7852 65.7568L36.8422 65.8709C37.1273 65.8139 37.3555 65.8139 37.6406 65.7568C38.1539 65.6998 38.6102 65.5857 39.1234 65.4717C39.2375 65.4717 39.4086 65.4146 39.5227 65.3576C39.6367 65.3576 39.6937 65.3006 39.8078 65.3006C39.9219 65.3006 40.093 65.2436 40.207 65.2436C40.3211 65.1865 40.4352 65.1865 40.5492 65.1295C42.4312 64.6732 44.2562 64.0459 46.0242 63.3045C43.0016 67.4107 39.0094 70.7186 34.3328 72.8857C36.5 72.7146 38.6672 72.3725 40.7773 71.7451C48.3625 69.5209 54.75 64.3881 58.5711 57.4873C57.7727 61.8217 56.0617 65.985 53.4953 69.635C55.3203 68.4373 56.9742 67.0115 58.5141 65.4717C62.7344 61.0803 65.5289 55.4342 66.4414 49.4459C67.0687 52.4115 67.2969 55.4912 67.0117 58.5139C80.6422 39.5225 68.1523 19.8467 62.9055 14.6568C62.9055 14.5998 62.8484 14.5998 62.8484 14.5428C62.8484 14.7709 62.8484 14.999 62.7914 15.2271C62.7344 15.6834 62.6773 16.0826 62.6203 16.4818C62.5062 16.8811 62.3922 17.3373 62.2781 17.7365C62.1641 18.1357 61.993 18.535 61.8219 18.9342C61.6508 19.3334 61.4797 19.7326 61.2516 20.0748C61.0234 20.417 60.7953 20.8162 60.5672 21.1584C60.3391 21.5006 60.0539 21.8428 59.7687 22.185C59.4836 22.5271 59.1984 22.8123 58.8562 23.1545C58.6852 23.3256 58.5141 23.4967 58.2859 23.6107C58.1148 23.7248 58.0008 23.8389 57.8297 24.01C57.4875 24.2951 57.1453 24.5232 56.7461 24.7514C56.4039 24.9795 56.0047 25.2076 55.6055 25.3787L54.4078 25.892C54.0086 26.0631 53.6094 26.1771 53.2102 26.2912C52.8109 26.4053 52.3547 26.5193 51.9555 26.5764C51.4992 26.6334 51.1 26.6904 50.7008 26.7475C50.4156 26.7475 50.0734 26.8045 49.7883 26.8045C49.332 26.8045 48.9328 26.7475 48.5336 26.7475C48.0773 26.6904 47.6781 26.6334 47.2789 26.5764C46.8227 26.5193 46.4234 26.4053 46.0242 26.2342C46.4234 26.1771 46.8797 26.1771 47.2789 26.0631C47.7352 26.0061 48.1344 25.892 48.5336 25.7779C48.9328 25.6639 49.3891 25.5498 49.7312 25.3787L50.9289 24.8654C51.3281 24.6943 51.6703 24.4662 52.0695 24.2381C52.4117 24.01 52.8109 23.7248 53.1531 23.4967C53.4953 23.2115 53.8375 22.9264 54.1227 22.6412C54.4648 22.3561 54.75 22.0139 55.0352 21.7287C55.3203 21.3865 55.6055 21.0443 55.8336 20.7021C55.8906 20.6451 55.8906 20.5881 55.9477 20.5311C56.1187 20.2459 56.3469 19.9037 56.518 19.6186C56.7461 19.2193 56.9172 18.8771 57.0883 18.4779C57.2594 18.0787 57.4305 17.6795 57.5445 17.2803L57.8867 16.0826C57.9437 15.6264 58.0578 15.2271 58.0578 14.8279C58.1148 14.3717 58.1148 13.9725 58.1148 13.5732C58.1148 13.2881 58.1148 12.9459 58.0578 12.6607C58.0008 12.2045 57.9437 11.8053 57.8867 11.4061C57.8297 10.9498 57.7156 10.5506 57.6016 10.1514C57.4875 9.75215 57.3164 9.35293 57.2023 8.95371C57.0312 8.55449 56.8602 8.15527 56.6891 7.81309C56.4609 7.41387 56.2898 7.07168 56.0617 6.67246C55.8336 6.33027 55.5484 5.98809 55.3203 5.6459C55.0352 5.30371 54.75 5.01855 54.4648 4.67637C54.2938 4.50527 54.1227 4.33418 53.9516 4.22012C53.0961 3.53574 52.2406 2.96543 51.3281 2.39512C51.2141 2.33809 51.1 2.28105 50.9289 2.22402C50.1875 1.59668 49.6172 1.42559 49.0469 1.19746Z" fill="#DF234F"/>
</svg>
