<svg width="60" height="60" viewBox="0 0 60 60" fill="none" xmlns="http://www.w3.org/2000/svg">
<path d="M18.4063 51.0798L18.2732 50.814C18.0074 50.282 18.0074 49.7499 18.1405 49.0848H3.77757L25.0565 11.3157L33.9669 27.4079L36.8924 25.2798L27.9819 9.18758C27.8493 8.9218 26.7852 7.32617 25.0565 7.32617C24.2582 7.32617 23.0615 7.59195 22.1305 9.3207L0.585847 47.4891C0.452722 47.8885 -0.478215 49.6173 0.319597 51.0798C0.851629 51.878 1.64991 52.6759 3.51178 52.6759H21.5985C19.7366 52.6759 18.8057 51.878 18.4063 51.0802V51.0798Z" fill="#00C58E"/>
<path d="M59.3669 47.6207L42.078 16.5009C41.8122 16.2351 40.8813 14.5059 39.1521 14.5059C38.3543 14.5059 37.1575 14.9048 36.2266 16.5009L33.9658 20.2246V27.4063L39.1525 18.4959L56.3083 49.0837H49.7918C49.9008 49.7169 49.8076 50.3683 49.5255 50.9455L49.3924 51.0787C48.5946 52.5412 46.5996 52.6743 46.3338 52.6743H56.441C56.8399 52.6743 58.7018 52.5416 59.6327 51.0787C60.0316 50.4135 60.2979 49.2168 59.3669 47.6207Z" fill="#108775"/>
<path d="M49.9266 51.0802V50.947L50.0597 50.6813C50.1923 50.1492 50.3255 49.6172 50.1923 49.0852L49.6608 47.4895L36.0961 23.8172L34.1011 20.2266H33.968L31.973 23.8172L18.4083 47.4891L17.8767 49.0852C17.7479 49.7614 17.8411 50.4612 18.1425 51.0802C18.6745 51.878 19.4723 52.6763 21.3342 52.6763H46.6027C47.0016 52.6763 48.9966 52.5431 49.9275 51.0802H49.9266ZM33.9675 27.4078L46.3359 49.0852H21.5995L33.9675 27.4078Z" fill="#2F495E"/>
</svg>
