<svg width="85" height="85" viewBox="0 0 85 85" fill="none" xmlns="http://www.w3.org/2000/svg">
<path d="M42.5029 17.001C31.1694 17.001 24.0885 22.6654 21.2529 33.999C25.5016 28.3339 30.4615 26.2095 36.1266 27.626C39.3612 28.4321 41.6729 30.7776 44.2328 33.3768C48.3991 37.6048 53.2216 42.4997 63.7529 42.4997C75.0858 42.4997 82.1674 36.8345 85.0029 25.4983C80.7536 31.1668 75.7944 33.2911 70.1286 31.8746C66.8946 31.0678 64.5857 28.723 62.0224 26.1239C57.8587 21.8958 53.0376 17.001 42.5029 17.001ZM21.2529 42.4997C9.92004 42.4997 2.83848 48.1648 0.00292969 59.501C4.2516 53.8325 9.21082 51.7082 14.8766 53.1246C18.1112 53.9315 20.4229 56.2763 22.9828 58.8754C27.1491 63.1035 31.9716 67.9983 42.5029 67.9983C53.8358 67.9983 60.9174 62.3339 63.7529 51.0003C59.5036 56.6654 54.5444 58.7898 48.8786 57.3733C45.6446 56.5672 43.3357 54.2217 40.7724 51.6225C36.6087 47.3945 31.7876 42.4997 21.2529 42.4997Z" fill="#38B2AC"/>
</svg>
