<svg width="58" height="58" viewBox="0 0 58 58" fill="none" xmlns="http://www.w3.org/2000/svg">
<path d="M0.90625 28.959V57.2793H57.5469V0.638672H0.90625V28.959ZM46.5495 26.6934C47.9061 27.0082 49.1391 27.7177 50.093 28.7324C50.6181 29.2791 51.0746 29.8878 51.4523 30.5449C51.4523 30.6174 49.0055 32.2713 47.5147 33.1957C47.4603 33.232 47.2428 32.9963 47.0027 32.6384C46.7305 32.1688 46.3438 31.7758 45.8787 31.4961C45.4136 31.2164 44.8852 31.0591 44.3428 31.0388C42.6255 30.921 41.5198 31.8227 41.5289 33.3045C41.5147 33.6734 41.5992 34.0394 41.7736 34.3648C42.1497 35.1487 42.852 35.6154 45.0542 36.567C49.1097 38.3115 50.8452 39.4624 51.9236 41.0982C53.1289 42.9107 53.3963 45.8379 52.5806 48.0038C51.6744 50.3601 49.4541 51.9596 46.3139 52.4898C44.8797 52.654 43.4306 52.6388 42.0002 52.4445C39.8171 52.0903 37.8032 51.0509 36.25 49.4765C35.7289 48.901 34.7139 47.4012 34.7773 47.2924C34.9428 47.1696 35.1169 47.0591 35.2984 46.9616L37.3828 45.7654L39.0095 44.8229L39.3494 45.3259C39.9229 46.1463 40.6528 46.8454 41.4972 47.383C43.3097 48.3346 45.7837 48.2032 47.0072 47.1021C47.418 46.6986 47.6742 46.1639 47.7313 45.5909C47.7885 45.018 47.6429 44.4431 47.3198 43.9665C46.8667 43.3366 45.9605 42.8065 43.4275 41.7009C40.5048 40.4412 39.2452 39.6618 38.0942 38.4202C37.3757 37.6009 36.8452 36.6343 36.54 35.5882C36.3123 34.3931 36.2787 33.169 36.4403 31.9632C37.043 29.1402 39.1591 27.1691 42.2494 26.5846C43.6805 26.4075 45.1302 26.4472 46.5495 26.7024V26.6934ZM33.2548 29.0677V31.3877H25.9006V52.3357H20.6852V31.3832H13.3128V29.1176C13.293 28.3376 13.3142 27.5572 13.3763 26.7795C13.4034 26.7432 17.9075 26.7251 23.345 26.7341H33.2277L33.2548 29.0677Z" fill="#007ACC"/>
</svg>
